<?xml version="1.0" standalone="no"?>
<!DOCTYPE svg PUBLIC "-//W3C//DTD SVG 20010904//EN"
 "http://www.w3.org/TR/2001/REC-SVG-20010904/DTD/svg10.dtd">
<svg version="1.0" xmlns="http://www.w3.org/2000/svg"
 width="1536.000000pt" height="1024.000000pt" viewBox="0 0 1536.000000 1024.000000"
 preserveAspectRatio="xMidYMid meet">

<g transform="translate(0.000000,1024.000000) scale(0.100000,-0.100000)"
fill="#000000" stroke="none">
<path d="M12208 9600 c-208 -37 -340 -78 -583 -182 -312 -134 -624 -343 -886
-595 -105 -102 -107 -103 -155 -103 -82 0 -318 -39 -400 -66 -253 -82 -411
-237 -511 -504 -29 -77 -66 -259 -93 -458 -24 -178 -40 -246 -91 -397 -99
-294 -203 -485 -364 -668 -94 -107 -191 -190 -279 -239 l-66 -37 -34 67 c-98
196 -178 472 -226 781 -16 102 -34 210 -40 240 -15 79 -14 88 8 69 19 -17 121
-52 129 -45 6 7 -49 187 -86 279 -36 91 -132 284 -190 383 -23 38 -41 73 -41
77 0 5 20 8 44 8 57 0 76 8 76 30 0 70 -412 464 -585 560 -237 132 -415 180
-663 180 -298 0 -612 -93 -802 -238 -89 -67 -200 -188 -253 -275 -24 -40 -54
-77 -68 -84 -190 -91 -246 -123 -311 -173 -237 -185 -358 -476 -304 -731 19
-86 63 -181 114 -246 44 -54 134 -123 163 -123 17 0 29 37 29 90 0 15 9 57 20
93 24 78 80 137 131 137 39 0 223 -35 364 -69 l110 -26 11 -50 c39 -165 -9
-419 -104 -558 -59 -85 -171 -195 -228 -223 -52 -25 -60 -26 -172 -22 -90 4
-136 11 -202 33 -347 111 -646 399 -816 784 -23 53 -74 186 -114 296 -180 500
-339 690 -778 931 -210 115 -629 294 -687 294 -31 0 -35 -7 -42 -84 -5 -57 -8
-64 -23 -56 -9 5 -209 84 -445 175 -236 92 -464 183 -508 202 -44 19 -116 48
-161 63 -44 15 -207 83 -361 149 -385 168 -625 265 -633 256 -13 -12 -4 -202
12 -265 61 -237 191 -409 516 -679 l25 -21 -30 6 c-16 4 -138 49 -270 101
-529 207 -598 233 -627 233 -20 0 -21 -3 -15 -102 8 -128 36 -239 86 -343 120
-251 337 -415 829 -625 94 -40 172 -77 172 -82 0 -12 -562 9 -868 33 -172 13
-252 12 -252 -3 0 -30 56 -155 99 -221 109 -166 239 -275 455 -383 198 -98
418 -169 634 -204 39 -7 72 -15 72 -20 0 -4 -26 -11 -57 -14 -32 -4 -139 -16
-238 -27 -106 -12 -280 -23 -422 -26 -141 -3 -243 -10 -243 -15 0 -23 72 -111
166 -205 100 -99 224 -189 364 -266 199 -109 504 -188 727 -188 43 0 72 -4 67
-9 -5 -5 -49 -26 -99 -48 -49 -22 -153 -70 -230 -107 -77 -37 -176 -84 -220
-105 -131 -62 -130 -57 -49 -124 138 -114 254 -171 442 -213 101 -23 140 -26
287 -26 138 -1 177 3 209 16 22 10 41 15 44 13 2 -3 -78 -86 -178 -184 -105
-103 -181 -185 -178 -193 5 -16 111 -53 221 -76 105 -22 444 -25 525 -4 29 7
56 11 59 8 3 -4 -26 -46 -64 -94 -118 -149 -264 -343 -269 -358 -9 -22 70 -30
281 -30 167 0 200 3 275 23 131 36 247 78 276 101 15 12 30 19 33 16 3 -4 1
-9 -5 -13 -28 -18 -354 -558 -354 -587 0 -17 251 10 315 35 14 5 39 12 56 15
90 16 254 104 400 216 44 33 82 59 84 57 11 -11 -134 -424 -196 -555 l-48
-103 49 0 c157 0 425 135 593 298 l58 57 -7 -95 c-6 -95 -21 -212 -45 -347 -7
-40 -10 -75 -7 -79 13 -12 117 18 189 54 156 79 293 192 390 324 l53 71 13
-74 c18 -104 43 -311 43 -353 0 -19 5 -38 10 -41 17 -10 132 48 212 107 82 61
152 138 223 246 26 40 49 71 51 70 1 -2 21 -37 45 -78 52 -93 148 -236 183
-273 l26 -28 -41 -61 c-166 -243 -268 -632 -285 -1089 -8 -191 -5 -200 61
-159 l35 22 0 -54 c0 -50 -25 -273 -51 -451 -6 -43 -9 -81 -5 -84 3 -3 23 2
45 10 l40 16 -6 -37 c-23 -167 -85 -265 -187 -294 -42 -12 -183 -14 -436 -7
-157 4 -206 -6 -297 -58 -83 -48 -155 -155 -187 -280 -18 -70 -21 -215 -5
-245 10 -19 13 -19 52 20 49 47 141 88 218 97 30 3 69 8 87 11 l32 6 0 -46 c0
-26 7 -61 16 -78 l16 -31 15 31 c31 64 155 80 255 33 49 -24 78 -66 78 -114 0
-57 37 -40 87 39 l27 42 135 -2 c151 -1 150 -1 282 84 104 67 164 74 359 40
139 -24 169 -25 234 -4 l51 16 85 -40 c85 -40 85 -40 103 -20 22 26 22 90 1
172 -35 137 -113 245 -206 287 -49 22 -65 24 -215 24 -90 0 -163 0 -163 0 0 0
4 26 10 58 10 63 47 147 64 147 6 0 36 -14 66 -31 46 -25 58 -28 76 -18 21 11
115 194 164 318 38 98 33 94 91 61 27 -17 52 -30 54 -30 2 0 17 43 35 96 59
179 221 540 238 532 4 -2 53 -26 110 -53 l103 -50 -8 -110 c-11 -147 -7 -390
7 -495 45 -321 154 -560 299 -652 55 -34 75 -35 151 -3 69 29 106 31 140 8 14
-9 70 -60 126 -115 58 -56 109 -98 121 -98 10 0 40 14 66 30 26 17 49 30 50
30 1 0 2 -42 2 -93 1 -78 5 -101 27 -150 15 -31 31 -57 36 -57 9 0 22 23 47
85 9 21 23 47 32 57 15 16 17 16 52 -1 71 -36 109 -36 226 3 160 53 185 49
185 -36 0 -54 7 -58 40 -23 26 27 83 50 106 41 21 -8 41 -61 49 -133 4 -37 12
-63 18 -63 7 0 29 24 50 54 48 67 120 122 177 135 82 19 189 13 245 -13 46
-21 94 -65 121 -112 10 -17 14 -13 43 36 46 80 71 170 71 255 l0 72 104 5 c92
4 113 8 170 37 99 48 157 139 172 267 5 42 2 61 -14 92 l-20 39 51 6 c234 24
326 198 200 380 -30 43 -167 156 -374 307 -79 58 -211 156 -294 219 -82 63
-202 154 -265 201 -63 48 -169 131 -235 186 -66 55 -137 113 -158 128 l-38 29
84 81 c115 110 158 202 234 496 l9 35 15 -27 c7 -15 40 -62 71 -106 47 -66 73
-91 148 -141 109 -73 130 -77 130 -23 0 46 12 123 49 317 16 83 32 171 36 198
3 26 10 47 14 47 4 0 14 -19 20 -42 19 -62 101 -233 145 -303 55 -86 123 -160
182 -201 51 -36 152 -76 167 -67 4 2 7 45 7 95 0 50 7 168 17 262 9 94 16 191
16 216 0 32 2 39 8 25 118 -298 203 -436 327 -527 60 -45 200 -113 210 -103 4
4 6 156 4 338 l-4 332 55 -91 c80 -134 113 -180 191 -262 89 -93 161 -149 253
-195 69 -35 188 -75 198 -66 5 6 -80 367 -138 579 -75 276 -120 499 -99 486 5
-3 29 -38 53 -78 72 -120 218 -308 310 -399 95 -93 220 -182 312 -223 51 -22
183 -66 200 -66 3 0 -12 51 -35 112 -121 337 -286 873 -273 886 3 3 13 -5 22
-18 60 -85 194 -242 288 -336 177 -178 315 -270 500 -332 86 -30 215 -52 215
-38 0 14 -35 74 -100 171 -148 222 -266 452 -378 735 -130 329 -227 598 -219
606 2 2 61 -62 132 -142 399 -451 710 -648 1075 -678 72 -6 225 5 237 18 4 3
-41 54 -99 113 -58 60 -123 128 -144 153 -248 284 -520 698 -859 1305 -65 116
-123 217 -130 225 -42 51 -22 41 235 -126 306 -198 575 -349 721 -403 156 -58
374 -90 521 -77 75 7 116 22 90 33 -8 3 -60 42 -115 86 -133 105 -379 353
-647 651 -386 429 -605 659 -743 781 -75 66 -135 121 -133 122 1 2 40 -13 86
-33 197 -83 512 -162 735 -184 183 -19 498 -17 630 4 152 23 215 36 215 44 0
4 -85 48 -187 97 -219 105 -496 248 -743 383 -421 229 -512 278 -622 333 -121
61 -439 199 -457 199 -16 0 -16 1 43 118 60 121 123 284 160 417 51 184 96
482 96 643 0 62 8 60 -152 32z m-8 -297 c-57 -338 -152 -620 -280 -828 -63
-103 -154 -225 -165 -221 -25 7 -171 -79 -178 -106 -3 -10 -14 -18 -25 -18
-12 0 -23 -9 -27 -19 -5 -17 -23 -30 -50 -36 -34 -8 -88 -38 -121 -67 -22 -19
-54 -44 -71 -57 -18 -12 -33 -27 -33 -33 0 -12 88 36 185 101 83 56 95 63 95
58 0 -6 -302 -207 -325 -216 -5 -2 1 9 15 25 24 28 24 28 -10 -2 -35 -31 -71
-54 -87 -54 -4 0 7 9 25 20 17 11 32 22 32 26 0 3 -14 -3 -32 -14 -38 -24 -48
-57 -15 -48 62 15 273 45 352 51 50 3 108 8 129 12 l39 5 -45 -83 c-25 -46
-67 -124 -93 -174 -102 -195 -180 -286 -316 -368 -66 -39 -346 -174 -449 -215
-41 -17 -106 -45 -145 -64 l-70 -33 100 -5 c55 -3 136 0 180 6 84 11 246 53
310 80 20 8 39 13 42 11 10 -11 -116 -234 -200 -352 -156 -220 -230 -284 -637
-555 -223 -148 -268 -184 -315 -255 -39 -60 -55 -72 -30 -25 17 33 18 41 8 39
-20 -3 -23 3 -12 22 8 15 8 19 0 15 -6 -4 -11 -3 -11 2 0 6 6 12 14 15 8 3 12
16 11 31 -2 14 1 24 6 20 17 -10 31 7 18 22 -7 9 -8 14 -1 14 15 0 2 38 -15
44 -12 5 -13 9 -3 21 31 37 90 75 123 79 20 2 42 8 48 12 8 4 9 3 5 -4 -20
-33 18 -3 93 73 87 87 91 101 20 64 -23 -11 -38 -16 -34 -10 3 6 1 11 -4 11
-6 0 -11 -8 -11 -18 0 -19 -18 -42 -34 -42 -5 0 -1 10 10 21 19 22 19 22 -3
10 -34 -18 -28 2 7 22 16 10 29 23 27 29 -1 6 33 25 75 42 43 17 78 34 78 37
0 4 -39 -2 -87 -13 -158 -35 -161 -35 -128 -2 8 8 18 21 22 27 21 33 256 146
433 208 36 13 79 33 95 45 17 12 55 33 85 47 69 33 155 106 125 107 -18 1 -19
1 -3 11 10 5 23 19 28 30 10 18 10 19 -9 7 -12 -7 -21 -16 -21 -21 0 -4 -5 -5
-11 -2 -6 4 -13 -2 -16 -14 -3 -12 -10 -21 -15 -21 -6 0 -8 7 -5 14 4 10 1 13
-9 9 -7 -3 -14 -9 -14 -14 0 -5 -5 -9 -11 -9 -5 0 -7 5 -3 12 5 7 3 8 -5 4 -7
-5 -10 -14 -7 -21 3 -8 -8 -18 -27 -26 -18 -7 -47 -23 -65 -35 -18 -13 -56
-30 -85 -40 -29 -9 -70 -28 -92 -42 -50 -32 -160 -60 -224 -58 -27 1 -44 -2
-38 -6 7 -5 3 -8 -10 -8 -13 0 -23 -4 -23 -10 0 -5 -9 -14 -20 -20 -30 -16
-24 1 14 43 18 20 32 37 30 37 -12 0 81 75 113 91 39 20 58 25 33 9 -8 -5 -10
-10 -4 -10 6 0 17 6 23 14 7 8 26 18 42 21 16 4 29 11 29 15 0 5 32 19 71 30
59 18 73 19 80 8 6 -9 8 -5 6 11 -3 20 -10 24 -38 26 -43 2 -122 -12 -172 -31
l-37 -14 35 51 c40 59 46 86 16 69 -25 -13 -41 -13 -41 1 0 5 4 7 10 4 23 -14
109 112 94 137 -4 7 -3 8 4 4 6 -4 21 7 33 24 13 16 28 30 34 30 17 0 66 55
58 65 -5 4 -1 6 8 2 11 -3 30 8 54 33 21 22 42 37 47 34 15 -10 31 8 17 18
-10 7 -8 8 7 3 12 -3 26 0 33 9 12 14 5 46 -10 46 -13 0 -11 -18 4 -23 9 -4 9
-6 0 -6 -6 -1 -15 4 -19 11 -11 18 37 46 84 50 7 1 11 7 8 14 -2 6 7 22 21 35
15 13 23 17 19 9 -4 -8 1 -5 12 7 11 12 23 19 26 16 4 -4 9 3 13 16 3 14 11
20 20 17 8 -3 11 -1 8 5 -4 5 -1 17 7 26 11 14 11 16 -1 9 -68 -41 -154 -106
-192 -143 -28 -28 -57 -47 -73 -49 -24 -2 -26 -1 -14 14 8 9 -1 6 -20 -7 -24
-16 -30 -26 -22 -31 9 -6 6 -11 -10 -20 -15 -8 -20 -8 -16 -1 4 6 3 11 -2 11
-6 0 -12 -7 -16 -15 -3 -8 -11 -15 -18 -15 -7 -1 -31 -20 -53 -43 -23 -23 -39
-41 -36 -40 2 2 10 -5 17 -15 12 -15 15 -15 23 -2 6 8 13 11 17 8 8 -9 -16
-32 -38 -36 -10 -2 -26 2 -37 7 -14 8 -23 6 -36 -9 -10 -11 -15 -23 -12 -27 4
-3 7 -1 7 5 0 7 5 12 10 12 17 0 11 -22 -16 -58 -15 -19 -31 -52 -36 -74 -5
-23 -18 -52 -29 -66 -11 -14 -17 -33 -14 -43 3 -10 0 -21 -8 -26 -8 -4 -22
-23 -31 -40 -9 -18 -21 -33 -27 -33 -8 0 -7 -5 1 -15 12 -15 11 -16 -12 -19
-7 0 -13 -6 -13 -13 0 -16 -8 -22 -34 -26 -12 -2 -27 -10 -32 -18 -7 -11 -9
-11 -9 -1 0 8 -5 10 -12 6 -8 -5 -9 -1 -5 12 7 17 6 18 -6 2 -8 -10 -13 -36
-11 -62 1 -25 -2 -48 -7 -51 -8 -5 -11 3 -11 25 0 3 3 16 6 30 8 30 -180 -350
-214 -432 -32 -78 -37 -67 -6 13 91 239 502 1013 711 1339 297 463 666 1007
832 1228 119 158 150 219 47 91 -33 -40 -73 -89 -91 -109 -28 -32 -113 -143
-293 -382 -32 -43 -109 -153 -171 -245 -62 -92 -138 -202 -169 -243 -69 -90
-213 -306 -302 -450 -36 -58 -130 -208 -210 -335 -79 -126 -177 -290 -217
-362 -40 -73 -75 -133 -78 -133 -7 0 147 293 165 313 8 9 12 20 9 23 -8 9 12
46 22 40 4 -3 34 39 66 92 32 53 65 105 73 114 8 9 11 23 6 30 -4 7 -4 10 1 6
10 -10 47 49 51 80 3 27 23 54 34 47 5 -3 28 27 52 67 23 39 75 120 114 179
64 97 71 112 67 149 -3 33 5 58 51 148 30 59 66 141 81 182 15 41 39 107 55
145 15 39 35 95 45 125 32 101 114 280 162 353 79 120 217 243 360 323 35 20
63 40 63 46 0 12 -94 -40 -190 -107 -41 -29 -85 -56 -98 -59 -27 -9 -82 -65
-82 -85 0 -7 -19 -33 -42 -56 -36 -36 -61 -84 -155 -302 -62 -142 -139 -325
-172 -408 -114 -285 -118 -291 -304 -582 -147 -229 -166 -253 -190 -244 -16 6
-25 4 -34 -8 -11 -14 -13 -14 -19 7 -3 12 -10 22 -14 22 -11 0 -17 -20 -25
-81 -6 -48 -4 -55 14 -67 23 -13 28 -3 9 16 -8 8 -8 12 -1 12 6 0 14 -7 17
-16 6 -16 -26 -76 -139 -259 -37 -60 -79 -129 -92 -152 -14 -24 -26 -43 -28
-43 -5 0 21 96 30 109 3 7 8 28 10 48 2 20 8 39 13 42 5 3 12 16 16 27 5 16 2
23 -12 26 -19 5 -19 8 3 94 23 91 40 182 31 174 -2 -3 -25 -93 -51 -200 -26
-107 -52 -202 -57 -210 -7 -12 -8 -10 -4 5 31 120 114 490 111 493 -8 9 -25
-10 -25 -29 0 -12 -18 -91 -40 -177 -21 -87 -49 -199 -60 -251 -19 -88 -61
-181 -81 -181 -4 0 -6 -6 -3 -14 3 -8 1 -17 -5 -21 -7 -4 -11 5 -12 22 0 15
-3 22 -6 15 -3 -9 -9 -10 -18 -2 -14 12 -48 3 -39 -11 3 -5 -3 -9 -13 -9 -10
0 -14 -4 -8 -8 14 -10 17 -52 4 -52 -5 0 -8 4 -4 9 3 5 0 13 -6 17 -9 5 -10
-9 -7 -50 4 -46 2 -56 -11 -56 -12 0 -13 -2 -3 -8 16 -11 12 -70 -5 -76 -7 -3
-13 -11 -13 -17 0 -8 4 -8 15 1 12 10 15 10 15 -4 0 -9 -7 -16 -16 -16 -8 0
-12 -4 -9 -10 3 -5 1 -10 -6 -10 -6 0 -9 -8 -6 -20 3 -13 -1 -21 -14 -25 -14
-5 -19 -16 -19 -42 0 -30 2 -34 15 -23 10 8 15 9 15 2 0 -6 -6 -15 -14 -19 -8
-4 -16 -24 -18 -43 -3 -37 -31 -51 -34 -17 -1 12 -1 13 3 2 12 -41 20 -2 26
128 3 78 11 187 17 242 13 114 107 577 143 705 40 140 133 384 186 488 27 53
56 111 62 127 l13 30 3 -30 c2 -16 27 -126 54 -244 28 -118 53 -239 56 -268 6
-59 18 -70 21 -20 5 68 34 218 72 365 39 154 102 313 182 462 69 128 263 402
366 516 336 373 777 639 1242 748 70 17 126 21 80 6 l-25 -8 28 -1 c19 -1 27
4 28 17 1 12 3 10 6 -5 2 -12 -5 -80 -17 -150z m-4874 -448 c177 -23 308 -75
484 -192 146 -97 390 -297 367 -301 -16 -3 -111 10 -179 24 -23 5 -18 -3 38
-62 75 -81 206 -261 258 -355 34 -62 106 -256 106 -286 0 -8 -28 16 -61 52
-34 36 -65 65 -69 65 -4 0 6 -53 21 -117 38 -157 72 -340 113 -618 36 -240 54
-306 130 -492 50 -121 56 -159 29 -166 -14 -4 -12 -5 5 -6 12 -1 22 -7 22 -16
0 -8 5 -15 10 -15 6 0 10 -5 10 -11 0 -40 -253 179 -311 270 -35 54 -34 67
-14 -203 17 -236 21 -306 17 -306 -1 0 -20 11 -41 25 -77 48 -217 173 -256
228 -37 53 -55 68 -55 49 0 -5 9 -17 20 -27 16 -15 20 -31 20 -82 0 -57 -38
-383 -45 -391 -14 -15 -146 103 -217 193 -50 65 -88 124 -88 139 0 37 -17 11
-39 -61 -26 -85 -99 -239 -137 -290 -13 -17 -24 -36 -24 -42 0 -23 -19 -9 -76
55 -71 80 -137 179 -160 242 -23 61 -20 60 -46 26 -25 -34 -212 -214 -254
-246 l-29 -22 28 30 c36 40 35 55 -3 19 -24 -23 -32 -26 -44 -16 -32 27 -49
103 -52 235 -2 70 -6 131 -9 134 -3 3 -5 -3 -5 -14 0 -13 -37 -49 -107 -106
-60 -47 -137 -109 -171 -137 -65 -52 -120 -86 -128 -78 -7 7 25 206 45 282 10
39 22 83 25 98 l7 29 -33 -25 c-114 -86 -203 -117 -332 -117 l-91 1 161 157
c88 86 175 179 193 205 44 65 82 151 122 277 31 96 34 116 33 230 0 81 -4 133
-12 148 -14 25 -13 26 23 12 14 -5 30 -20 35 -32 6 -16 7 -6 3 33 -3 31 -2 59
3 61 5 3 49 2 98 -2 148 -12 269 33 383 143 l63 61 -57 37 c-32 20 -102 64
-155 97 -182 113 -323 245 -372 347 -13 28 -34 85 -46 125 -12 41 -35 107 -50
147 -18 48 -24 73 -16 73 6 0 11 12 11 28 -2 37 -35 52 -117 52 -38 0 -68 3
-68 6 0 17 133 152 183 186 114 78 292 154 422 182 215 46 318 53 481 31z
m-939 -575 c23 -46 36 -88 43 -145 5 -44 22 -116 37 -160 23 -65 39 -91 86
-142 54 -58 163 -131 287 -193 24 -12 72 -41 107 -63 59 -39 61 -42 46 -59 -9
-10 -46 -33 -82 -51 -64 -31 -68 -32 -201 -31 -85 0 -164 6 -215 17 -185 38
-344 67 -402 73 -35 4 -63 10 -63 14 0 8 98 27 214 41 86 10 490 5 529 -7 9
-3 17 -1 17 4 0 13 -117 57 -195 73 -38 9 -142 13 -285 14 -211 0 -233 -2
-355 -28 -164 -36 -201 -54 -243 -115 -33 -48 -69 -131 -82 -187 -6 -30 -7
-30 -38 31 -35 69 -62 173 -62 240 0 77 30 185 78 279 37 73 63 107 137 180
109 109 162 141 355 216 234 90 241 90 287 -1z m5363 -35 c0 -2 -30 -28 -67
-58 -98 -77 -143 -110 -143 -105 0 3 34 31 77 64 42 32 88 69 102 81 28 24 31
26 31 18z m-990 -899 c0 -3 -4 -8 -10 -11 -5 -3 -10 -1 -10 4 0 6 5 11 10 11
6 0 10 -2 10 -4z m48 -13 c16 -16 16 -16 -1 -10 -11 4 -23 0 -34 -13 -10 -11
-23 -20 -30 -20 -10 0 34 59 45 60 2 0 11 -8 20 -17z m-121 -59 c-3 -3 -12 -4
-19 -1 -8 3 -5 6 6 6 11 1 17 -2 13 -5z m53 -1 c-8 -3 -24 -10 -35 -15 -20 -9
-20 -9 -1 6 11 9 27 16 35 15 14 0 14 -1 1 -6z m-452 -23 c-14 -22 -28 -26
-28 -9 0 5 -4 7 -10 4 -5 -3 -10 -1 -10 5 0 7 8 9 20 5 11 -4 20 -2 20 4 0 6
5 11 10 11 6 0 5 -8 -2 -20z m452 6 c0 -2 -8 -10 -17 -17 -16 -13 -17 -12 -4
4 13 16 21 21 21 13z m-90 -12 c0 -9 -32 -33 -44 -34 -5 0 -1 9 9 20 18 20 35
26 35 14z m-350 -23 c-5 -11 -15 -23 -22 -27 -7 -4 -8 -3 -4 4 4 7 1 12 -6 12
-10 0 21 22 40 29 1 1 -2 -8 -8 -18z m294 -96 c-7 -18 -20 -19 -30 -3 -4 6 -3
8 4 4 6 -3 13 -2 17 4 9 15 15 12 9 -5z m-1059 -513 c-2 -2 -9 15 -17 39 l-13
43 -12 -39 -13 -40 6 40 c11 79 16 82 35 20 10 -33 16 -61 14 -63z m491 -39
c-14 -26 -25 -45 -26 -41 0 12 43 98 48 94 2 -2 -8 -26 -22 -53z m329 27 c-3
-5 -13 -10 -21 -10 -8 0 -12 5 -9 10 3 6 13 10 21 10 8 0 12 -4 9 -10z m-545
-50 c-6 -12 -14 -19 -18 -16 -3 4 0 12 6 18 7 7 13 21 13 33 1 16 2 16 6 3 2
-9 -1 -27 -7 -38z m-20 20 c-6 -11 -13 -20 -16 -20 -2 0 0 9 6 20 6 11 13 20
16 20 2 0 0 -9 -6 -20z m-201 -131 c16 -63 32 -123 35 -134 3 -11 -2 -2 -13
20 -11 22 -27 76 -36 120 -8 44 -18 89 -22 100 -3 11 -2 17 1 14 4 -4 20 -58
35 -120z m-142 59 c-3 -8 -6 -5 -6 6 -1 11 2 17 5 13 3 -3 4 -12 1 -19z m544
-5 c-12 -20 -14 -14 -5 12 4 9 9 14 11 11 3 -2 0 -13 -6 -23z m-576 -70 c-14
-31 -38 -122 -52 -202 -24 -129 -28 -176 -31 -397 -2 -189 1 -276 13 -354 16
-113 14 -145 -4 -52 -32 165 -35 553 -5 712 7 41 21 112 30 158 14 75 56 192
69 192 2 0 -7 -26 -20 -57z m315 -97 c0 -3 -4 -8 -10 -11 -5 -3 -10 -1 -10 4
0 6 5 11 10 11 6 0 10 -2 10 -4z m-83 -98 c-3 -8 -6 -5 -6 6 -1 11 2 17 5 13
3 -3 4 -12 1 -19z m323 -85 c-11 -17 -11 -17 -6 0 3 10 6 24 7 30 0 9 2 9 5 0
3 -7 0 -20 -6 -30z m660 -110 c-28 -58 -166 -195 -300 -296 -184 -140 -257
-201 -395 -330 -78 -73 -154 -143 -170 -157 -45 -37 54 62 200 201 72 68 129
128 127 134 -2 5 0 7 4 3 9 -10 22 0 271 194 29 22 50 45 46 51 -3 5 -1 7 4 4
12 -7 73 56 73 74 0 6 6 9 14 6 15 -6 70 45 60 55 -3 4 0 16 6 28 11 20 9 20
-39 -5 -39 -19 -51 -31 -51 -48 0 -21 -4 -23 -42 -21 -67 4 -138 -31 -138 -68
0 -9 -3 -9 -10 2 -8 12 -10 12 -16 -3 -3 -9 -10 -15 -14 -12 -5 3 -11 1 -15
-5 -3 -5 0 -10 7 -10 7 0 5 -5 -6 -11 -15 -9 -16 -13 -5 -20 11 -7 10 -9 -3
-9 -10 0 -18 4 -18 9 0 5 -7 11 -15 15 -8 3 -14 1 -12 -5 1 -6 -8 -15 -20 -20
-28 -10 -32 8 -6 26 14 11 11 13 -21 19 -21 4 -41 5 -44 2 -3 -3 4 -6 16 -6
15 0 20 -4 15 -16 -4 -12 -8 -13 -13 -3 -5 6 -15 9 -25 6 -11 -5 -14 -3 -9 5
5 8 2 9 -10 5 -10 -4 -27 -7 -37 -7 -11 0 -17 -4 -14 -10 3 -5 2 -10 -4 -10
-5 0 -18 -3 -28 -6 -16 -6 -16 -5 2 13 11 11 74 37 140 57 242 75 281 89 355
126 41 21 93 51 115 68 22 16 42 28 44 26 2 -2 -7 -25 -19 -51z m-632 27 c3
-7 0 -10 -5 -7 -23 14 -103 -92 -161 -215 -33 -68 -62 -132 -66 -142 -3 -10
-9 -16 -12 -14 -16 17 114 270 178 347 43 50 58 57 66 31z m96 -276 c7 -19 2
-18 -19 6 -16 17 -16 20 -3 15 9 -4 19 -13 22 -21z m226 -14 c0 -5 -5 -10 -11
-10 -5 0 -7 5 -4 10 3 6 8 10 11 10 2 0 4 -4 4 -10z m-164 -9 c-6 -9 -46 -22
-46 -15 0 3 10 9 23 14 29 11 29 11 23 1z m121 -6 c0 -8 -4 -15 -9 -15 -10 0
-11 14 -1 23 9 10 10 9 10 -8z m-202 -35 c-10 -11 -22 -20 -28 -20 -5 0 1 9
14 20 31 25 37 25 14 0z m68 -8 c-29 -21 -131 -78 -120 -66 14 15 121 83 132
83 6 0 0 -7 -12 -17z m-433 -133 c-22 -46 -40 -80 -40 -74 0 13 72 166 77 162
2 -2 -15 -42 -37 -88z m-79 -216 c-12 -20 -14 -14 -5 12 4 9 9 14 11 11 3 -2
0 -13 -6 -23z m-264 -45 c-3 -8 -6 -5 -6 6 -1 11 2 17 5 13 3 -3 4 -12 1 -19z
m239 -34 c-8 -21 -15 -34 -15 -28 -1 15 20 76 25 71 2 -2 -2 -21 -10 -43z
m-229 -16 c-3 -8 -6 -5 -6 6 -1 11 2 17 5 13 3 -3 4 -12 1 -19z m200 -90 c-3
-8 -6 -5 -6 6 -1 11 2 17 5 13 3 -3 4 -12 1 -19z m-112 -15 c-3 -16 -10 -32
-15 -37 -5 -5 -4 7 2 27 13 43 23 50 13 10z m-327 -150 c-2 -5 -17 -35 -34
-68 -31 -58 -157 -337 -184 -403 -12 -31 -65 -70 -77 -58 -9 9 16 269 33 332
17 67 50 114 104 150 49 32 168 67 158 47z m333 -33 c90 -13 246 -86 298 -141
54 -55 65 -98 58 -234 -7 -123 -37 -236 -85 -316 -99 -169 -235 -321 -335
-377 -32 -18 -63 -32 -67 -30 -16 6 39 123 70 149 16 14 30 29 30 32 0 4 -28
7 -63 7 -79 0 -164 21 -245 62 -89 45 -112 68 -112 116 0 81 9 100 49 105 51
7 189 -11 301 -38 130 -32 167 -37 174 -26 19 30 -301 202 -421 226 -39 8 -40
14 -16 121 l17 76 100 -7 c57 -4 120 -15 146 -25 25 -10 70 -28 100 -40 30
-12 72 -35 93 -51 42 -34 49 -22 21 37 -24 50 -70 91 -148 129 -37 19 -83 44
-100 54 -18 12 -60 23 -98 27 l-66 7 21 51 c35 86 48 96 136 96 42 0 106 -5
142 -10z m-270 -1076 c-22 -56 -37 -154 -46 -298 -17 -263 -123 -459 -232
-426 l-28 8 33 1 c46 1 40 16 -8 16 -25 0 -40 -5 -40 -12 0 -7 -4 -13 -10 -13
-5 0 -10 2 -10 5 0 18 70 256 117 400 62 190 98 267 140 306 30 29 95 70 100
65 2 -2 -5 -25 -16 -52z m134 -1388 c10 -7 20 -24 22 -36 2 -13 2 -22 1 -19
-2 2 -16 19 -32 37 -30 33 -25 43 9 18z m215 -67 c0 -5 11 -15 25 -21 15 -7
24 -17 21 -25 -3 -7 1 -13 9 -13 18 0 18 0 -1 39 -9 17 -27 39 -40 48 -14 9
-23 18 -20 20 4 5 61 -34 201 -138 50 -36 173 -124 275 -194 208 -144 252
-179 286 -229 31 -45 30 -81 -2 -113 -25 -25 -28 -26 -127 -21 -110 6 -224 37
-307 85 -74 43 -251 174 -245 183 3 4 -3 14 -13 21 -15 13 -16 12 -3 -3 7 -10
11 -18 7 -18 -9 0 -92 65 -155 121 -61 55 -65 66 -5 18 21 -17 40 -26 42 -21
2 6 17 -4 35 -21 18 -18 57 -50 87 -71 30 -22 70 -51 89 -65 l35 -26 -17 25
c-9 14 -33 39 -53 55 -20 17 -61 59 -91 95 -53 61 -53 62 -9 18 26 -27 50 -48
52 -48 13 0 -38 59 -100 117 -39 36 -63 60 -53 53 9 -7 17 -9 17 -4 -1 15 -26
44 -38 44 -15 0 -67 78 -58 87 3 3 -1 15 -11 25 -9 10 -14 18 -10 18 7 0 71
-54 165 -139 42 -39 82 -71 87 -72 6 0 16 -5 23 -11 6 -6 12 -7 12 -3 0 4 7 2
15 -5 11 -9 15 -9 15 -1 0 7 -30 44 -68 84 -37 40 -83 92 -102 117 l-35 45 33
-23 c17 -13 32 -28 32 -33z m-220 -303 c42 -41 87 -79 335 -281 50 -40 146
-113 215 -162 99 -72 130 -100 148 -134 22 -43 22 -46 6 -99 -9 -32 -29 -67
-48 -86 -27 -27 -42 -33 -98 -39 -76 -8 -109 -2 -193 32 -188 78 -350 259
-619 688 -14 22 -21 42 -15 43 11 4 42 -18 35 -25 -3 -3 9 -30 26 -62 35 -64
58 -99 58 -87 0 4 -9 21 -21 37 -11 16 -18 29 -14 29 3 0 -1 13 -10 30 -8 16
-15 32 -15 35 0 7 157 -113 162 -123 2 -4 26 -25 53 -47 28 -22 53 -44 57 -50
5 -6 8 -6 8 2 0 6 -4 14 -9 17 -5 3 -11 15 -14 26 -3 11 -1 18 4 14 21 -13 6
14 -27 48 -21 23 -33 42 -28 49 5 8 2 10 -7 7 -8 -3 -23 0 -34 8 -10 8 -15 14
-10 14 4 0 0 10 -11 21 -19 22 -19 22 5 9 13 -6 44 -28 69 -47 33 -25 47 -31
53 -22 4 7 5 17 2 22 -3 5 -9 4 -13 -2 -4 -7 -13 3 -23 26 -9 21 -35 60 -56
87 -36 44 -43 66 -23 66 3 0 27 -20 52 -44z m-144 -17 c21 -22 24 -28 10 -23
-15 6 -17 4 -11 -6 5 -8 4 -11 -3 -6 -6 4 -9 13 -5 21 3 8 1 15 -5 15 -5 0
-12 7 -16 15 -8 21 -4 19 30 -16z m-1775 -56 c12 -32 34 -92 49 -133 15 -41
35 -92 44 -112 9 -21 14 -38 11 -38 -6 0 -42 80 -66 145 -10 28 -29 82 -43
120 -28 77 -28 75 -22 75 3 0 14 -26 27 -57z m82 27 c3 -11 1 -20 -4 -20 -5 0
-9 9 -9 20 0 11 2 20 4 20 2 0 6 -9 9 -20z m-98 -200 c15 -83 43 -185 45 -165
0 6 9 -6 20 -25 11 -19 19 -30 20 -25 0 6 4 3 10 -5 8 -12 11 -12 27 1 16 14
21 14 43 2 23 -14 24 -14 3 -10 -13 3 -23 2 -23 -2 0 -5 10 -13 23 -20 22 -11
22 -11 -3 -7 l-25 5 25 -19 c22 -17 23 -20 7 -25 -9 -4 -17 -12 -17 -17 0 -7
4 -7 13 -1 6 6 21 13 32 17 16 5 15 2 -5 -14 -14 -11 -28 -20 -32 -20 -5 0 -8
-5 -8 -10 0 -6 11 -3 25 6 24 15 25 15 26 -2 1 -11 1 -22 0 -26 0 -4 5 -5 13
-2 7 3 16 -2 19 -10 5 -12 0 -14 -23 -11 -18 2 -30 -2 -34 -11 -3 -8 1 -14 9
-14 8 0 15 -7 15 -15 0 -8 7 -15 16 -15 13 0 14 3 5 14 -10 12 -8 17 8 25 11
6 29 11 41 11 17 0 20 4 15 20 -5 14 -2 20 10 20 12 0 15 6 10 20 -4 11 -2 20
4 20 15 0 14 -33 -1 -50 -7 -8 -3 -6 9 4 16 13 20 23 14 35 -14 27 -122 353
-118 357 2 2 20 -45 40 -104 21 -59 51 -141 67 -183 17 -41 30 -80 30 -86 0
-5 -27 -35 -59 -66 -44 -42 -67 -57 -88 -57 -36 0 -55 13 -48 31 3 8 -2 23
-10 34 -15 19 -16 19 -5 -3 7 -13 10 -26 7 -28 -6 -7 -90 150 -110 206 -35 95
-58 209 -61 300 -2 52 -2 75 0 50 2 -25 11 -83 19 -130z m1826 170 c6 0 8 -4
5 -9 -6 -9 22 -26 37 -23 4 1 6 -1 5 -5 -3 -16 18 -49 53 -85 21 -21 33 -38
27 -38 -5 0 -24 16 -41 35 -18 20 -54 58 -82 86 -27 28 -42 49 -32 45 10 -3
23 -6 28 -6z m-1717 -70 c4 -24 3 -29 -3 -15 -4 11 -11 36 -15 55 -4 24 -3 29
3 15 4 -11 11 -36 15 -55z m96 -34 c0 -12 -5 -7 -19 24 -11 24 -11 24 3 6 9
-11 16 -24 16 -30z m-77 -81 c5 -28 4 -34 -3 -20 -8 19 -14 73 -6 64 2 -2 6
-22 9 -44z m-1487 -60 c20 -8 40 -12 45 -9 16 9 79 -27 79 -46 0 -10 -7 -54
-15 -97 -20 -104 -19 -125 7 -193 l23 -57 78 -13 c63 -10 90 -10 137 0 78 17
149 9 190 -20 39 -28 68 -88 62 -129 -4 -26 -11 -31 -84 -56 l-80 -27 -102 27
c-85 23 -120 27 -219 27 -135 -1 -152 -7 -262 -92 -70 -53 -114 -70 -186 -70
-72 0 -107 10 -139 40 -66 61 -23 144 105 205 40 19 76 39 79 44 10 15 -224 1
-260 -16 -25 -11 -35 -26 -54 -81 -27 -79 -45 -102 -74 -100 -12 1 -36 -4 -53
-11 -17 -7 -46 -11 -64 -9 -32 3 -34 6 -37 42 -4 44 17 104 53 151 14 17 25
35 25 39 0 4 -19 5 -42 1 -50 -8 -133 -53 -167 -89 -14 -14 -32 -26 -41 -26
-10 0 -32 -10 -51 -23 -41 -27 -157 -72 -166 -64 -9 10 36 138 64 179 35 52
72 60 272 58 91 -1 207 -2 256 -2 159 -2 273 40 361 134 61 64 73 87 108 197
15 46 29 88 32 92 8 14 81 10 120 -6z m2629 -15 c3 -6 -1 -7 -9 -4 -18 7 -21
14 -7 14 6 0 13 -4 16 -10z m-655 -49 c0 -10 9 -26 20 -36 24 -22 26 -35 5
-35 -8 0 -15 6 -15 13 0 9 -2 9 -8 -1 -6 -9 -12 -5 -20 13 -15 33 -15 48 -1
39 8 -4 9 1 4 16 -5 15 -4 20 4 16 6 -4 11 -15 11 -25z m820 -94 c67 -68 95
-111 116 -183 24 -86 43 -113 82 -120 18 -4 120 -7 225 -8 182 -1 194 -2 233
-24 73 -42 91 -109 56 -202 l-18 -45 -112 0 c-110 0 -127 6 -101 32 17 17 3
76 -24 101 -40 38 -170 72 -203 54 -15 -8 -9 -15 40 -47 57 -36 58 -38 51 -73
-8 -43 -34 -83 -71 -106 -14 -10 -26 -16 -27 -14 -45 89 -101 114 -193 83 -17
-5 -23 -2 -27 17 -7 27 -136 178 -152 178 -6 0 -23 -34 -38 -75 -20 -53 -38
-83 -62 -102 -46 -38 -117 -59 -164 -47 l-36 9 3 61 c5 75 -5 85 -73 74 -27
-4 -51 -7 -53 -5 -9 8 43 106 69 131 29 28 35 29 122 29 112 0 111 -2 64 139
-33 98 -33 100 -15 118 14 14 23 16 32 9 10 -8 16 -4 25 15 l12 27 25 -24 c13
-12 31 -24 40 -25 9 -1 24 -10 35 -20 18 -16 19 -16 19 5 0 21 -56 100 -90
128 -10 8 -11 12 -3 13 6 0 15 -5 18 -11 4 -6 13 -8 21 -5 8 3 30 -22 60 -69
54 -85 72 -94 26 -13 -17 29 -35 65 -41 80 l-10 27 44 -30 c24 -16 67 -53 95
-82z m-1316 60 c4 -17 3 -26 -2 -23 -6 3 -12 19 -14 36 -6 37 7 27 16 -13z
m358 9 c10 -19 10 -20 -5 -7 -10 7 -17 11 -17 7 0 -15 59 -209 66 -214 4 -4 4
3 1 15 -5 22 -4 22 18 5 17 -12 20 -20 13 -29 -8 -10 -5 -13 11 -13 26 0 27
20 1 48 -11 12 -20 25 -20 29 0 4 16 -10 35 -31 19 -22 35 -35 35 -30 0 6 -4
14 -10 20 -11 11 -62 136 -57 140 2 2 27 -46 56 -106 30 -61 55 -110 57 -110
8 0 -25 169 -37 192 -10 20 -12 34 -3 25 4 -3 15 -2 25 4 15 8 24 3 49 -23 16
-18 29 -37 29 -43 0 -5 -15 8 -34 29 -19 22 -35 34 -35 27 0 -7 -4 -9 -10 -6
-5 3 -10 1 -10 -5 0 -7 6 -10 13 -7 6 2 24 -7 40 -21 15 -14 36 -27 46 -29 19
-3 19 -2 0 49 -10 28 -23 56 -29 62 -5 5 -10 15 -10 20 0 6 31 -22 70 -62 38
-40 75 -72 81 -72 8 0 8 4 1 13 -5 6 -19 35 -30 62 -12 28 -16 41 -9 30 7 -10
36 -45 65 -76 34 -36 49 -60 42 -64 -15 -9 -149 -178 -185 -232 -15 -24 -35
-43 -45 -43 -28 0 -128 114 -161 183 -35 75 -83 243 -75 263 3 8 1 14 -4 14
-6 0 -10 4 -10 10 0 16 30 -1 42 -24z m-389 -16 c3 -11 2 -18 -3 -15 -4 3 -10
14 -13 25 -3 11 -2 18 3 15 4 -3 10 -14 13 -25z m1630 15 c-3 -9 -8 -14 -10
-11 -3 3 -2 9 2 15 9 16 15 13 8 -4z m-33 -70 c93 -81 120 -100 120 -82 0 8
-12 32 -27 53 -14 21 -28 54 -29 73 l-3 34 26 -24 c41 -39 174 -220 167 -230
-9 -15 -200 -11 -216 4 -7 8 -18 12 -25 10 -6 -2 -20 9 -30 24 -22 31 -68 143
-78 186 -5 25 -3 27 12 18 10 -5 47 -35 83 -66z m-1180 5 c0 -5 -2 -10 -4 -10
-3 0 -8 5 -11 10 -3 6 -1 10 4 10 6 0 11 -4 11 -10z m462 -35 c4 -20 3 -23 -8
-14 -16 13 -19 39 -5 39 5 0 11 -11 13 -25z m-652 -25 c0 -5 -7 -10 -15 -10
-8 0 -15 5 -15 10 0 6 7 10 15 10 8 0 15 -4 15 -10z"/>
<path d="M11344 8648 c-75 -79 -151 -172 -214 -263 -35 -49 -77 -105 -93 -124
-16 -19 -35 -48 -43 -65 -7 -17 -30 -54 -52 -82 -21 -28 -44 -67 -51 -85 -7
-19 -17 -43 -22 -54 -20 -41 45 45 143 190 89 132 170 245 312 435 62 83 67
90 64 90 -2 0 -22 -19 -44 -42z"/>
<path d="M11710 8439 c-61 -54 -179 -146 -248 -192 -78 -52 -242 -178 -242
-186 0 -3 -16 -17 -35 -30 -19 -13 -35 -28 -35 -32 0 -11 61 28 159 101 40 30
94 69 119 87 25 18 61 47 81 66 20 19 63 55 96 80 80 62 173 146 160 146 -5 0
-30 -18 -55 -40z"/>
<path d="M10779 7855 c-17 -24 -36 -42 -40 -39 -5 3 -6 -2 -3 -10 3 -9 7 -16
9 -16 1 0 19 25 39 55 44 66 40 73 -5 10z"/>
<path d="M11065 7460 c-10 -11 -22 -17 -26 -14 -5 3 -9 -2 -9 -10 0 -9 -7 -16
-15 -16 -8 0 -15 -4 -15 -10 0 -5 -5 -10 -10 -10 -7 0 -7 8 1 23 12 22 12 22
-10 3 -13 -12 -19 -26 -16 -35 3 -8 3 -12 -1 -9 -7 8 -84 -60 -84 -75 0 -5 7
-6 16 -3 14 5 15 4 4 -9 -7 -8 -21 -13 -30 -10 -21 7 -42 -16 -44 -49 0 -13
-4 -22 -9 -19 -12 7 -48 -8 -42 -18 3 -5 1 -19 -6 -31 -12 -23 -12 -23 10 -4
11 11 21 26 21 35 0 10 3 12 8 5 11 -17 48 1 68 33 10 15 54 64 98 108 45 44
92 92 105 108 28 31 14 38 -14 7z"/>
<path d="M10471 7377 c-13 -21 -12 -21 5 -5 10 10 16 20 13 22 -3 3 -11 -5
-18 -17z"/>
<path d="M10887 7363 c-4 -3 -7 -11 -7 -17 0 -6 5 -5 12 2 6 6 9 14 7 17 -3 3
-9 2 -12 -2z"/>
<path d="M10220 7130 c0 -5 5 -10 11 -10 5 0 7 5 4 10 -3 6 -8 10 -11 10 -2 0
-4 -4 -4 -10z"/>
<path d="M10686 7104 c-5 -14 -4 -15 9 -4 17 14 19 20 6 20 -5 0 -12 -7 -15
-16z"/>
<path d="M10097 7073 c-4 -3 -7 -11 -7 -17 0 -6 5 -5 12 2 6 6 9 14 7 17 -3 3
-9 2 -12 -2z"/>
<path d="M10640 7055 c-13 -14 -19 -25 -13 -25 5 0 20 11 33 25 13 14 19 25
13 25 -5 0 -20 -11 -33 -25z"/>
<path d="M10246 7013 c-6 -14 -5 -15 5 -6 7 7 10 15 7 18 -3 3 -9 -2 -12 -12z"/>
<path d="M10599 6909 c16 -6 28 -6 35 1 7 7 -1 10 -24 9 -33 0 -34 -1 -11 -10z"/>
<path d="M10714 6859 c0 -16 3 -16 28 -3 15 8 28 17 28 19 0 3 -13 4 -28 3
-19 -1 -28 -7 -28 -19z"/>
<path d="M9896 6745 c-9 -26 -7 -32 5 -12 6 10 9 21 6 23 -2 3 -7 -2 -11 -11z"/>
<path d="M9815 6740 c-3 -5 1 -10 9 -10 8 0 18 5 21 10 3 6 -1 10 -9 10 -8 0
-18 -4 -21 -10z"/>
<path d="M9830 6704 c0 -8 5 -12 10 -9 6 4 8 11 5 16 -9 14 -15 11 -15 -7z"/>
<path d="M9800 6699 c0 -5 5 -7 10 -4 6 3 10 8 10 11 0 2 -4 4 -10 4 -5 0 -10
-5 -10 -11z"/>
<path d="M9701 6374 c0 -11 3 -14 6 -6 3 7 2 16 -1 19 -3 4 -6 -2 -5 -13z"/>
<path d="M7045 8390 c-27 -4 -71 -17 -97 -28 -98 -43 -209 -72 -274 -72 l-65
0 32 -47 c36 -54 109 -133 122 -133 4 0 5 5 2 10 -3 6 -1 10 4 10 6 0 11 4 11
9 0 5 -10 7 -22 4 -21 -4 -21 -3 -5 7 27 17 39 0 25 -36 -16 -44 -3 -93 44
-163 49 -73 83 -94 158 -95 46 0 62 5 100 31 25 17 57 44 72 61 14 16 31 31
38 34 14 4 26 124 16 162 -4 15 -25 45 -48 68 l-41 41 34 -6 c32 -6 33 -6 15
8 -11 8 -29 15 -40 16 -21 0 -21 1 -1 9 67 29 290 -2 374 -51 54 -32 47 -16
-20 45 -120 108 -253 144 -434 116z m71 -215 c24 -36 29 -97 11 -131 -8 -16
-31 -44 -51 -63 -27 -26 -45 -35 -83 -38 -41 -4 -53 -1 -85 24 -20 15 -41 38
-47 51 -16 33 -13 88 4 102 10 9 12 16 5 20 -6 4 -5 13 4 26 14 18 15 18 25
-8 7 -18 18 -28 31 -28 24 0 27 -31 5 -50 -14 -11 -12 -16 12 -41 35 -35 57
-36 88 -4 29 29 33 83 9 120 -20 30 -11 45 26 45 20 0 35 -8 46 -25z"/>
<path d="M6480 8322 c0 -5 7 -15 15 -22 8 -7 15 -8 15 -2 0 5 -7 15 -15 22 -8
7 -15 8 -15 2z"/>
<path d="M7129 7873 c-13 -16 -12 -17 4 -4 9 7 17 15 17 17 0 8 -8 3 -21 -13z"/>
<path d="M6884 7263 c3 -18 46 -28 46 -12 0 5 -7 9 -15 9 -8 0 -15 5 -15 10 0
6 -4 10 -9 10 -5 0 -8 -8 -7 -17z"/>
<path d="M6604 6719 c-24 -47 -45 -111 -34 -104 6 3 10 10 10 16 0 7 30 79 47
112 2 4 2 7 -1 7 -3 0 -13 -14 -22 -31z"/>
<path d="M7961 6624 c0 -11 3 -14 6 -6 3 7 2 16 -1 19 -3 4 -6 -2 -5 -13z"/>
<path d="M7943 6520 c0 -25 2 -35 4 -22 2 12 2 32 0 45 -2 12 -4 2 -4 -23z"/>
<path d="M6460 6460 c-9 -6 -10 -10 -3 -10 6 0 15 5 18 10 8 12 4 12 -15 0z"/>
<path d="M6370 6420 c-19 -11 -30 -19 -25 -19 6 0 26 8 45 19 19 11 31 19 25
19 -5 0 -26 -8 -45 -19z"/>
<path d="M6482 6398 c-6 -23 -9 -44 -7 -46 2 -2 9 15 15 38 6 23 9 44 7 46 -2
3 -9 -14 -15 -38z"/>
<path d="M7215 6330 c2 -97 19 -189 32 -177 3 3 -1 23 -8 44 -7 21 -16 83 -20
138 l-7 100 3 -105z"/>
<path d="M8046 6417 c3 -10 9 -15 12 -12 3 3 0 11 -7 18 -10 9 -11 8 -5 -6z"/>
<path d="M7567 6308 c-14 -45 -25 -84 -23 -86 2 -2 16 33 31 78 15 45 25 83
23 85 -2 3 -16 -32 -31 -77z"/>
<path d="M7951 6364 c0 -11 3 -14 6 -6 3 7 2 16 -1 19 -3 4 -6 -2 -5 -13z"/>
<path d="M6789 6343 c-13 -16 -12 -17 4 -4 16 13 21 21 13 21 -2 0 -10 -8 -17
-17z"/>
<path d="M6168 6343 c7 -3 16 -2 19 1 4 3 -2 6 -13 5 -11 0 -14 -3 -6 -6z"/>
<path d="M7177 6343 c-13 -22 -37 -87 -28 -78 10 11 42 85 36 85 -2 0 -6 -3
-8 -7z"/>
<path d="M7660 6314 c0 -7 9 -22 21 -35 16 -19 18 -20 10 -4 -17 34 -31 51
-31 39z"/>
<path d="M8100 6316 c0 -2 8 -10 18 -17 15 -13 16 -12 3 4 -13 16 -21 21 -21
13z"/>
<path d="M6715 6274 c-40 -37 -24 -29 28 13 16 13 25 23 20 23 -4 0 -26 -16
-48 -36z"/>
<path d="M7911 6258 c-24 -120 -31 -160 -30 -176 1 -28 18 38 34 133 16 98 13
128 -4 43z"/>
<path d="M7119 6233 c-13 -16 -12 -17 4 -4 9 7 17 15 17 17 0 8 -8 3 -21 -13z"/>
<path d="M6596 6179 c-21 -16 -35 -29 -30 -29 6 0 25 13 44 30 45 37 37 37
-14 -1z"/>
<path d="M7093 6198 c-15 -20 -25 -38 -20 -38 3 0 12 11 21 25 17 26 16 35 -1
13z"/>
<path d="M7510 6152 c-12 -31 -39 -84 -58 -117 -60 -102 -57 -106 6 -9 36 56
87 172 79 180 -2 2 -14 -22 -27 -54z"/>
<path d="M7761 6140 c12 -27 78 -100 90 -100 4 0 -7 15 -24 33 -18 18 -42 46
-55 62 -19 26 -21 26 -11 5z"/>
<path d="M6530 6140 c-9 -6 -10 -10 -3 -10 6 0 15 5 18 10 8 12 4 12 -15 0z"/>
<path d="M7250 6134 c0 -6 7 -19 16 -30 14 -18 14 -18 3 6 -14 31 -19 36 -19
24z"/>
<path d="M7021 6097 c-13 -21 -12 -21 5 -5 10 10 16 20 13 22 -3 3 -11 -5 -18
-17z"/>
<path d="M7286 6067 c3 -10 9 -15 12 -12 3 3 0 11 -7 18 -10 9 -11 8 -5 -6z"/>
<path d="M6960 6030 c-21 -18 -28 -30 -19 -30 8 0 25 14 37 30 28 37 26 37
-18 0z"/>
<path d="M6125 8108 c-26 -14 -65 -49 -65 -59 0 -4 15 -10 33 -13 54 -10 69
-27 69 -74 -1 -62 28 -68 61 -13 21 36 22 90 3 136 -13 30 -20 35 -48 35 -18
0 -42 -6 -53 -12z"/>
<path d="M10593 6025 c-9 -24 1 -27 15 -5 8 13 8 20 2 20 -6 0 -13 -7 -17 -15z"/>
<path d="M10421 5941 c-10 -7 -7 -9 12 -8 15 1 27 5 27 10 0 10 -22 9 -39 -2z"/>
<path d="M9088 4342 c-15 -6 -14 -9 7 -19 14 -6 25 -8 25 -4 0 3 19 5 43 2 23
-2 36 -6 30 -8 -7 -3 -13 -14 -13 -25 0 -20 -1 -20 -19 -4 -19 17 -19 17 -14
-2 2 -11 0 -23 -6 -26 -6 -4 -11 -2 -11 4 0 6 -5 8 -12 4 -8 -5 -9 0 -5 15 4
17 2 21 -8 17 -8 -3 -17 -1 -20 4 -3 4 1 11 7 13 7 3 2 6 -11 6 -21 1 -22 -1
-10 -16 8 -10 19 -21 24 -25 9 -7 -26 -13 -49 -9 -5 1 -6 -5 -3 -14 4 -8 2
-15 -4 -15 -6 0 -7 -5 -4 -10 4 -6 10 -8 14 -5 5 2 17 -2 27 -10 21 -15 50
-13 194 12 47 8 112 18 145 22 65 7 122 30 77 31 -12 0 -68 11 -125 24 -56 13
-131 27 -167 31 -36 3 -72 8 -80 10 -8 2 -23 0 -32 -3z m132 -56 c0 -3 -4 -8
-10 -11 -5 -3 -10 -1 -10 4 0 6 5 11 10 11 6 0 10 -2 10 -4z"/>
<path d="M9041 4304 c0 -11 3 -14 6 -6 3 7 2 16 -1 19 -3 4 -6 -2 -5 -13z"/>
<path d="M8908 3213 c7 -3 16 -2 19 1 4 3 -2 6 -13 5 -11 0 -14 -3 -6 -6z"/>
<path d="M9421 2427 c14 -13 24 -29 21 -37 -3 -13 -2 -13 7 0 6 8 11 10 11 4
0 -7 10 -14 22 -17 16 -5 10 5 -22 33 -25 22 -49 39 -55 39 -5 0 2 -10 16 -22z"/>
<path d="M9495 2350 c-3 -5 -5 -10 -3 -11 33 -8 38 -7 27 7 -14 17 -16 17 -24
4z"/>
<path d="M9515 2160 c10 -11 20 -20 23 -20 3 0 -3 9 -13 20 -10 11 -20 20 -23
20 -3 0 3 -9 13 -20z"/>
<path d="M9290 2155 c13 -14 26 -25 28 -25 3 0 -5 11 -18 25 -13 14 -26 25
-28 25 -3 0 5 -11 18 -25z"/>
<path d="M9177 1994 c24 -31 29 -44 21 -52 -9 -9 -9 -12 0 -12 19 0 82 -61 75
-73 -3 -6 -1 -7 5 -3 7 4 12 3 12 -2 0 -6 10 -12 23 -16 12 -3 46 -26 75 -50
68 -58 135 -106 144 -103 3 1 18 -9 32 -22 42 -39 29 -10 -17 40 -23 25 -37
38 -31 30 26 -37 25 -42 -4 -21 -17 13 -33 29 -36 37 -3 7 -12 13 -21 13 -8 0
-15 4 -15 9 0 16 -51 72 -103 112 -53 43 -70 48 -60 22 6 -16 5 -16 -10 -4
-12 9 -14 17 -7 26 10 13 -1 25 -75 80 l-40 30 32 -41z"/>
<path d="M9395 1890 c3 -5 8 -10 11 -10 2 0 4 5 4 10 0 6 -5 10 -11 10 -5 0
-7 -4 -4 -10z"/>
<path d="M9436 1839 c4 -8 -1 -9 -17 -4 -17 5 -21 4 -14 -3 6 -6 17 -12 25
-14 8 -2 25 -16 38 -32 12 -17 22 -26 22 -20 0 11 -48 84 -56 84 -3 0 -2 -5 2
-11z"/>
<path d="M7440 1715 c0 -5 5 -17 10 -25 5 -8 10 -10 10 -5 0 6 -5 17 -10 25
-5 8 -10 11 -10 5z"/>
<path d="M7649 1483 c-13 -16 -12 -17 4 -4 16 13 21 21 13 21 -2 0 -10 -8 -17
-17z"/>
</g>
</svg>
