<?xml version="1.0" standalone="no"?>
<!DOCTYPE svg PUBLIC "-//W3C//DTD SVG 20010904//EN"
 "http://www.w3.org/TR/2001/REC-SVG-20010904/DTD/svg10.dtd">
<svg version="1.0" xmlns="http://www.w3.org/2000/svg"
 width="1024.000000pt" height="1024.000000pt" viewBox="0 0 1024.000000 1024.000000"
 preserveAspectRatio="xMidYMid meet">

<g transform="translate(0.000000,1024.000000) scale(0.100000,-0.100000)"
fill="#000000" stroke="none">
<path d="M4865 9474 c-22 -2 -92 -9 -155 -15 -768 -72 -1517 -359 -2127 -816
-881 -660 -1442 -1565 -1652 -2664 -147 -767 -85 -1551 181 -2284 425 -1172
1251 -2084 2320 -2561 394 -175 827 -294 1263 -346 147 -17 703 -17 845 0 600
74 1112 241 1615 527 486 276 956 695 1316 1175 316 422 580 946 727 1445 204
689 234 1380 92 2087 -131 654 -386 1234 -768 1748 -143 193 -207 265 -402
461 -164 164 -272 259 -444 388 -626 470 -1301 737 -2116 836 -127 16 -598 29
-695 19z m500 -284 c311 -23 535 -65 915 -175 76 -21 290 -101 411 -153 408
-175 810 -444 1151 -771 650 -623 1059 -1438 1182 -2356 53 -392 48 -838 -14
-1210 -53 -311 -151 -665 -250 -895 -11 -25 -26 -63 -35 -84 l-16 -40 -54 75
c-72 98 -164 279 -210 409 -30 88 -95 309 -95 325 0 3 31 -11 68 -30 96 -48
244 -100 255 -89 2 3 -4 35 -14 72 -23 88 -75 373 -88 487 -14 122 -20 209
-31 485 -17 403 -46 690 -84 855 -17 68 -13 75 47 75 34 0 37 2 32 23 -3 12
-19 90 -36 172 -92 452 -213 758 -426 1079 -148 223 -306 391 -473 503 -253
170 -458 199 -626 87 -64 -43 -93 -78 -131 -159 -36 -79 -43 -223 -18 -388 21
-138 11 -226 -36 -324 -79 -165 -272 -278 -438 -256 -112 15 -173 78 -227 237
-42 122 -55 226 -64 506 -6 215 -12 279 -28 340 -11 41 -18 77 -17 79 2 2 18
-7 36 -19 l31 -23 -7 54 c-36 268 -181 505 -395 648 -197 131 -440 188 -765
178 -296 -9 -469 -76 -619 -239 -49 -52 -78 -75 -117 -89 -116 -45 -230 -116
-331 -209 -100 -91 -148 -196 -148 -326 0 -156 83 -319 193 -375 37 -19 37
-19 37 1 0 29 33 90 63 118 36 34 88 43 182 31 95 -12 104 -14 173 -46 39 -18
58 -35 78 -69 25 -42 26 -52 21 -122 -10 -139 -77 -277 -216 -444 -128 -155
-210 -211 -332 -228 -95 -14 -173 1 -263 48 -92 48 -156 114 -203 209 l-38 77
0 130 c0 72 4 181 9 241 18 226 -48 360 -219 448 -260 133 -674 -102 -997
-568 -221 -318 -363 -669 -458 -1135 -17 -85 -34 -163 -36 -172 -5 -15 2 -18
40 -18 25 0 46 -3 46 -7 0 -5 -11 -64 -25 -133 -29 -149 -49 -376 -70 -785
-25 -477 -57 -724 -129 -995 -8 -30 -13 -56 -12 -58 8 -7 179 54 249 88 42 22
77 35 77 31 0 -24 -96 -337 -125 -407 -63 -153 -218 -407 -235 -387 -18 21
-135 343 -185 507 -160 525 -203 1235 -109 1801 100 600 312 1148 626 1620
145 217 260 357 462 563 462 472 1003 808 1618 1007 453 147 968 209 1443 175z
m-264 -410 c257 -26 467 -118 610 -267 58 -59 115 -141 105 -150 -3 -3 -37 13
-75 35 -39 23 -71 39 -71 37 0 -3 16 -26 35 -51 60 -79 87 -133 131 -263 41
-123 70 -259 63 -295 -3 -13 -21 4 -67 63 -66 85 -82 100 -59 54 42 -83 77
-230 102 -428 22 -174 64 -328 134 -487 11 -27 16 -48 10 -48 -50 0 -188 124
-240 215 -17 31 -33 55 -34 53 -2 -2 3 -46 11 -98 15 -110 49 -221 105 -339
21 -46 38 -86 36 -87 -6 -7 -105 48 -153 85 -55 41 -157 159 -176 202 -7 16
-15 29 -18 29 -7 0 2 -88 24 -227 20 -129 21 -173 2 -173 -8 0 -38 20 -68 44
-92 75 -163 174 -208 289 l-27 68 -12 -86 c-22 -156 -65 -268 -142 -365 l-42
-54 -39 43 c-88 100 -138 228 -147 376 l-6 100 -24 -45 c-38 -72 -105 -171
-151 -223 -40 -46 -173 -147 -192 -147 -23 0 7 199 51 340 12 36 21 69 21 73
0 5 -21 -12 -46 -37 -25 -25 -76 -64 -112 -85 -73 -42 -184 -85 -202 -79 -7 2
21 48 66 107 215 284 292 417 320 551 29 139 8 218 -77 286 -32 26 -58 49 -56
50 2 2 19 -1 38 -6 51 -15 179 -12 238 6 58 17 87 41 97 79 17 70 -34 126
-164 180 -98 40 -171 95 -191 142 -6 15 -17 65 -25 111 -8 45 -24 103 -36 128
-27 55 -22 81 27 135 85 95 280 164 474 168 31 0 103 -4 160 -9z m-737 -375
c28 -27 46 -81 46 -135 1 -109 129 -223 278 -247 18 -3 35 -10 38 -15 4 -6 -1
-8 -12 -5 -11 3 -41 9 -69 12 -27 4 -102 16 -165 26 -247 41 -397 15 -512 -89
-23 -20 -47 -50 -53 -66 l-13 -30 -33 65 c-81 157 -19 319 168 436 60 37 85
46 144 54 40 5 74 11 77 14 3 3 22 5 43 5 27 0 45 -7 63 -25z m211 -420 c61 1
129 2 153 5 23 2 45 0 49 -3 10 -11 -48 -67 -86 -83 -49 -21 -96 -17 -233 16
-68 17 -154 34 -192 37 -50 4 -64 9 -51 15 30 17 109 26 180 19 39 -3 120 -6
180 -6z m1707 -2898 c39 -103 132 -248 209 -326 67 -68 146 -117 235 -146 37
-12 55 -24 64 -43 47 -105 194 -287 290 -358 48 -36 154 -88 220 -109 47 -15
60 -24 85 -64 46 -71 188 -214 271 -271 78 -54 157 -91 240 -111 40 -10 61
-24 115 -81 l66 -68 -569 0 -570 1 -68 69 c-61 61 -76 71 -141 91 -72 22 -73
22 -166 4 -52 -9 -110 -15 -129 -12 -72 12 -123 77 -142 179 l-9 46 53 12 c29
7 57 16 63 19 8 5 8 39 1 117 -32 338 -96 609 -198 827 -33 73 -35 81 -23 110
7 18 25 67 40 109 14 43 28 77 31 78 3 0 17 -33 32 -73z m-2263 -45 c18 -46
31 -93 28 -105 -3 -12 -24 -65 -47 -117 -80 -178 -136 -421 -165 -708 -20
-205 -22 -189 28 -202 23 -6 50 -13 60 -16 25 -8 22 -59 -8 -119 -28 -58 -40
-74 -75 -98 -29 -20 -123 -23 -167 -6 -15 6 -57 12 -93 12 -56 1 -74 -4 -128
-33 -39 -20 -78 -52 -100 -79 -21 -25 -41 -49 -47 -53 -13 -10 -1145 -10
-1145 0 1 4 25 33 54 64 45 50 62 61 122 79 195 60 370 192 507 385 30 41 44
53 73 57 20 4 75 25 123 49 72 36 102 59 186 143 68 68 118 131 157 194 31 51
58 97 60 102 2 6 24 15 48 20 165 37 307 173 423 406 34 67 64 119 68 115 3
-4 20 -45 38 -90z m205 -1231 l37 -84 -66 -98 c-36 -55 -65 -101 -65 -103 0
-3 16 2 35 10 55 23 141 18 190 -11 48 -28 85 -98 85 -160 l0 -36 -33 35 c-19
19 -45 40 -59 45 -14 5 -104 9 -199 8 -195 -2 -201 -4 -250 -78 -33 -48 -53
-135 -47 -201 3 -26 2 -48 -1 -48 -3 0 -19 12 -35 26 -61 57 -72 142 -31 249
36 97 74 155 109 170 47 20 122 106 211 242 43 67 80 121 81 120 1 -1 18 -40
38 -86z m1914 -61 c97 -146 135 -188 197 -217 45 -20 73 -65 111 -172 42 -117
26 -209 -43 -244 l-28 -15 0 82 c0 69 -4 90 -28 139 -16 32 -39 64 -50 71 -15
10 -79 16 -209 20 -209 7 -234 3 -281 -53 l-27 -33 0 55 c0 44 5 62 29 94 31
43 100 83 145 83 35 0 118 -20 131 -31 5 -5 13 -9 18 -9 6 0 -37 66 -127 194
-10 15 53 191 64 179 4 -4 48 -69 98 -143z m559 -215 c100 -30 163 -143 137
-242 -8 -31 -17 -29 -31 6 -15 42 -79 80 -154 92 -35 6 -74 13 -87 15 -21 4
-81 85 -82 110 0 6 33 15 73 21 39 5 77 10 83 11 6 1 33 -5 61 -13z m-3034 -7
c40 -6 74 -12 75 -14 2 -1 -12 -27 -31 -57 -34 -53 -36 -54 -91 -60 -75 -8
-143 -43 -172 -89 -13 -21 -24 -46 -24 -55 0 -15 -2 -16 -10 -3 -16 25 -11
132 9 175 21 47 70 92 109 101 15 3 32 7 37 9 17 6 24 5 98 -7z m4109 -304
c19 -42 1 -59 -66 -59 -39 -1 -61 -6 -73 -18 -16 -16 -15 -18 12 -47 16 -16
36 -32 45 -35 9 -3 56 13 103 35 48 22 90 40 93 40 3 0 4 -20 2 -45 l-3 -46
-120 -40 c-66 -22 -139 -51 -162 -64 -48 -26 -51 -24 -24 21 16 27 17 34 5 55
-48 86 41 228 144 229 25 0 35 -6 44 -26z m-2461 -110 c32 -26 59 -51 59 -55
0 -15 -85 -119 -97 -119 -14 0 -123 98 -123 111 0 10 89 109 97 109 3 0 31
-21 64 -46z m-1009 -361 c2 -259 7 -364 16 -380 18 -32 74 -47 155 -40 38 3
71 8 73 10 2 2 -3 39 -11 83 -22 115 -22 114 45 156 33 20 61 34 64 30 2 -4 7
-36 11 -72 12 -116 27 -178 47 -197 23 -21 95 -23 141 -4 l29 11 -6 258 c-4
141 -9 275 -12 297 -4 40 -4 41 65 92 l69 52 4 -82 c3 -45 6 -173 7 -285 2
-283 14 -334 81 -352 19 -6 106 -10 193 -10 170 0 163 -3 151 58 l-6 30 -117
-5 c-106 -5 -118 -4 -141 15 -24 19 -25 26 -24 114 0 109 23 180 80 246 61 72
131 70 204 -6 73 -76 107 -215 97 -402 -7 -138 -23 -207 -51 -214 -12 -3 -93
-8 -181 -12 -134 -5 -171 -4 -225 11 -78 20 -110 38 -135 75 l-19 28 -27 -37
c-41 -58 -76 -81 -121 -81 -54 0 -101 22 -134 63 l-28 36 -37 -34 c-59 -53
-140 -67 -251 -44 -59 13 -110 57 -122 106 -4 15 -11 183 -15 373 l-8 345 61
63 c33 34 63 62 67 62 4 0 9 -161 11 -357z m1628 -44 c0 -260 3 -358 13 -377
17 -38 59 -46 192 -37 l117 7 -7 34 c-3 19 -15 55 -26 80 -10 25 -19 51 -19
58 0 14 97 112 105 104 3 -2 15 -43 26 -89 17 -66 20 -102 16 -169 -5 -79 -24
-180 -34 -180 -2 0 -68 -7 -146 -16 -78 -9 -164 -13 -190 -10 -71 8 -123 41
-149 95 -20 42 -23 67 -29 271 -4 124 -8 281 -8 350 l-1 125 63 52 c34 29 65
52 69 52 4 1 8 -157 8 -350z m-1181 289 c28 -25 51 -51 51 -57 0 -16 -90 -111
-105 -111 -6 0 -30 16 -52 35 l-41 35 -35 -35 c-19 -19 -39 -35 -43 -35 -5 0
-35 24 -67 53 l-58 52 61 54 61 53 37 -33 c20 -19 40 -38 43 -43 7 -9 52 36
72 71 11 18 15 17 76 -39z m2984 -851 l-58 -70 -6 149 c-4 82 -8 257 -10 388
l-3 240 64 46 65 46 3 -364 2 -364 -57 -71z m-1495 630 l52 -53 -51 -56 -51
-57 -29 21 c-15 12 -42 39 -60 60 l-31 39 53 49 c30 27 56 49 59 50 3 0 29
-24 58 -53z m-2308 -125 c37 -28 84 -102 106 -168 29 -89 26 -286 -6 -369 -41
-107 -95 -172 -194 -234 -60 -37 -109 -40 -169 -10 -44 22 -146 99 -147 111 0
3 33 11 73 18 142 23 299 88 365 153 l22 23 -113 -1 c-110 0 -115 1 -151 28
-41 32 -55 59 -63 127 -10 85 47 247 107 305 49 47 119 54 170 17z m2805 -40
c22 -15 54 -50 72 -77 32 -48 63 -154 63 -214 l0 -31 265 0 c308 0 290 -9 226
115 l-40 76 50 59 c27 33 52 60 55 60 9 0 51 -103 64 -159 15 -62 8 -190 -13
-261 l-13 -45 -209 -13 c-116 -7 -249 -11 -297 -8 l-88 5 -38 -83 c-64 -136
-182 -236 -278 -236 -45 0 -99 26 -163 78 l-45 36 90 22 c102 24 176 51 236
87 43 25 108 79 108 89 0 3 -47 7 -104 10 -93 3 -107 6 -145 31 -25 16 -49 43
-57 62 -21 51 -18 160 7 233 25 75 91 179 121 192 35 15 88 3 133 -28z m-3241
-4 c28 -169 26 -287 -6 -386 l-10 -34 -93 4 c-81 3 -96 6 -125 29 l-34 26 -45
-35 c-42 -31 -50 -34 -102 -30 l-57 4 -6 -39 c-8 -46 -36 -105 -63 -129 -38
-35 -135 -71 -203 -76 -175 -12 -308 93 -325 258 -8 67 15 191 46 252 21 42
89 131 95 126 1 -2 -6 -28 -16 -58 -10 -30 -22 -87 -25 -125 -17 -174 57 -258
225 -259 82 -1 188 27 197 52 9 22 -26 181 -50 232 l-23 47 48 62 c25 34 50
62 54 62 11 1 32 -62 50 -146 8 -39 22 -75 31 -82 9 -7 40 -13 68 -13 l52 0
-9 66 -9 66 47 55 c34 40 49 51 55 41 4 -7 12 -58 18 -113 7 -56 17 -103 24
-107 6 -4 33 -8 60 -8 45 0 47 1 47 29 0 16 -9 58 -20 93 -11 34 -20 70 -20
79 0 15 92 87 112 89 4 0 9 -15 12 -32z m3836 -667 l35 -33 -55 -49 c-30 -27
-57 -49 -61 -49 -3 0 -32 24 -63 53 l-58 52 53 58 52 58 31 -29 c17 -16 47
-44 66 -61z"/>
<path d="M4885 8485 c-34 -7 -91 -22 -129 -34 -89 -27 -180 -28 -223 -1 -43
26 -42 14 3 -38 39 -46 102 -86 149 -96 21 -5 37 -17 48 -39 30 -55 81 -82
153 -82 68 0 99 16 138 69 22 28 28 93 13 133 -6 17 -5 22 5 18 24 -9 292 -65
295 -61 2 2 -16 19 -39 38 -116 95 -258 127 -413 93z m56 -126 c17 -32 -6 -69
-43 -69 -28 0 -39 22 -18 35 6 4 10 14 9 23 -2 28 0 32 21 32 10 0 24 -10 31
-21z"/>
<path d="M4176 8317 c-30 -22 -12 -57 28 -57 59 0 76 41 25 59 -39 13 -32 14
-53 -2z"/>
<path d="M5246 2649 c-35 -28 -33 -55 6 -79 32 -19 114 -37 124 -27 8 8 -25
79 -48 104 -27 28 -48 29 -82 2z"/>
<path d="M3755 2474 c-61 -65 4 -124 136 -124 54 0 57 1 51 23 -9 35 -48 92
-76 110 -38 25 -83 22 -111 -9z"/>
<path d="M6573 2438 c-27 -31 -34 -63 -17 -86 16 -24 89 -50 161 -59 48 -5 53
-4 53 14 0 34 -44 107 -79 130 -44 30 -91 30 -118 1z"/>
</g>
</svg>
